<?xml version="1.0" standalone="no"?>
<!DOCTYPE svg PUBLIC "-//W3C//DTD SVG 20010904//EN"
 "http://www.w3.org/TR/2001/REC-SVG-20010904/DTD/svg10.dtd">
<svg version="1.0" xmlns="http://www.w3.org/2000/svg"
 width="512.000000pt" height="512.000000pt" viewBox="0 0 512.000000 512.000000"
 preserveAspectRatio="xMidYMid meet">

<g transform="translate(0.000000,512.000000) scale(0.100000,-0.100000)"
fill="#000000" stroke="none">
<path d="M3157 5104 c-26 -8 -91 -45 -145 -81 -137 -93 -183 -113 -264 -113
l-66 0 -71 65 c-39 35 -82 67 -95 71 -40 10 -87 -12 -161 -76 -76 -67 -150
-97 -213 -87 -19 4 -82 29 -141 57 -126 59 -177 65 -216 25 -47 -46 -34 -76
77 -192 113 -119 194 -253 242 -400 l18 -53 437 0 437 0 28 88 c33 103 99 246
148 323 19 29 67 89 106 132 77 84 101 136 84 185 -20 61 -112 86 -205 56z
m-625 -270 c23 -21 66 -48 93 -60 94 -44 255 -26 355 40 19 12 49 31 65 42
l30 19 -19 -30 c-58 -88 -136 -250 -169 -347 -6 -17 -31 -18 -329 -18 l-324 0
-28 65 c-15 35 -43 90 -62 121 -19 31 -34 58 -34 61 0 3 13 2 29 -2 73 -16
213 33 294 103 27 23 50 42 52 42 2 0 23 -16 47 -36z"/>
<path d="M2029 4131 c-36 -36 -37 -73 -4 -106 l24 -25 511 0 511 0 24 25 c33
33 32 70 -4 106 l-29 29 -502 0 -502 0 -29 -29z"/>
<path d="M2017 3726 c-42 -63 -172 -246 -289 -407 -291 -403 -394 -564 -498
-774 -127 -257 -193 -470 -219 -707 -63 -574 165 -1010 658 -1257 65 -33 86
-34 59 -4 -25 28 -66 116 -73 156 -6 32 -17 44 -66 78 -181 123 -321 307 -383
505 -73 235 -56 576 42 870 98 291 217 497 584 1006 101 140 219 306 263 370
l80 117 385 0 385 0 55 -81 c30 -45 149 -213 264 -372 250 -348 359 -512 445
-669 267 -493 327 -1028 154 -1372 -101 -199 -293 -377 -524 -484 l-81 -37 27
-18 c14 -9 44 -35 66 -57 l39 -39 63 31 c140 71 287 181 384 289 181 202 267
424 280 720 13 297 -56 604 -207 918 -113 234 -196 364 -522 816 -114 158
-243 339 -285 402 l-77 114 -466 0 -466 0 -77 -114z"/>
<path d="M1848 2446 c-185 -40 -286 -225 -233 -429 42 -161 173 -246 359 -234
90 5 197 42 240 82 25 23 26 30 26 122 0 143 0 143 -153 143 -67 0 -128 -4
-136 -9 -14 -9 -19 -57 -6 -69 3 -4 43 -9 88 -12 l82 -5 3 -53 3 -52 -46 -20
c-107 -46 -215 -35 -275 29 -44 46 -60 97 -60 187 0 122 51 197 149 224 82 22
148 -3 200 -75 30 -42 36 -46 69 -43 28 2 40 10 52 30 14 26 13 31 -9 72 -29
56 -78 90 -156 111 -69 18 -118 18 -197 1z"/>
<path d="M2537 2450 c-107 -27 -161 -86 -161 -175 0 -102 60 -154 230 -196
142 -36 181 -94 110 -165 -31 -31 -40 -34 -90 -34 -75 0 -109 19 -136 75 -12
25 -29 52 -37 60 -23 23 -60 18 -79 -10 -35 -54 17 -154 103 -196 40 -20 63
-24 143 -24 83 0 102 3 145 26 139 71 153 258 25 328 -24 14 -89 37 -143 52
-108 30 -146 50 -148 77 -3 34 3 47 27 70 20 17 37 22 82 22 68 0 90 -13 126
-75 22 -36 32 -45 55 -45 41 0 65 31 58 76 -7 43 -46 88 -100 116 -45 22 -154
32 -210 18z"/>
<path d="M2979 2441 c-20 -16 -22 -23 -14 -47 12 -34 36 -42 132 -43 l72 -1 3
-264 c3 -243 5 -266 22 -285 24 -27 68 -27 92 0 17 19 19 42 22 285 l3 264 72
1 c96 1 120 9 132 43 8 24 6 31 -14 47 -21 17 -42 19 -261 19 -219 0 -240 -2
-261 -19z"/>
<path d="M2019 1114 c-50 -9 -133 -68 -166 -117 -61 -91 -68 -189 -20 -283 51
-99 133 -149 247 -149 114 0 195 49 248 150 22 41 27 64 27 125 0 65 -4 82
-30 128 -32 59 -67 92 -126 123 -39 19 -131 31 -180 23z m143 -191 c36 -37 46
-89 24 -135 -42 -87 -161 -90 -211 -6 -32 56 -2 142 60 169 36 16 96 3 127
-28z"/>
<path d="M2844 1108 c-12 -5 -171 -234 -354 -508 -317 -475 -332 -500 -326
-534 7 -36 37 -66 68 -66 48 0 74 34 391 509 178 268 328 497 332 510 9 31
-11 76 -41 90 -30 13 -42 13 -70 -1z"/>
<path d="M2970 551 c-81 -26 -142 -76 -178 -145 -22 -42 -26 -64 -26 -126 0
-117 48 -195 158 -253 59 -31 174 -31 236 2 61 32 97 67 128 126 36 67 38 179
5 241 -34 65 -71 103 -127 131 -54 27 -150 39 -196 24z m154 -190 c26 -27 31
-39 31 -81 0 -42 -5 -54 -30 -80 -83 -82 -220 -16 -201 98 6 37 37 78 71 93
37 16 96 3 129 -30z"/>
</g>
</svg>
