<?xml version="1.0" standalone="no"?>
<!DOCTYPE svg PUBLIC "-//W3C//DTD SVG 20010904//EN"
 "http://www.w3.org/TR/2001/REC-SVG-20010904/DTD/svg10.dtd">
<svg version="1.0" xmlns="http://www.w3.org/2000/svg"
 width="285.000000pt" height="63.000000pt" viewBox="0 0 285.000000 63.000000"
 preserveAspectRatio="xMidYMid meet">

<g transform="translate(0.000000,63.000000) scale(0.100000,-0.100000)"
fill="#ffffff" stroke="none">
<path d="M541 614 c-75 -20 -128 -52 -142 -86 -14 -34 -5 -48 55 -85 86 -55
106 -105 66 -170 -22 -36 -58 -58 -113 -68 l-37 -7 0 113 c0 94 -3 119 -19
145 -28 46 -83 76 -139 77 -58 1 -102 -22 -139 -70 -28 -36 -28 -37 -31 -220
l-4 -183 36 0 36 0 0 169 c0 167 0 170 25 199 32 39 74 48 114 27 48 -24 61
-61 61 -170 l0 -95 -91 0 c-81 0 -90 -2 -87 -17 3 -15 17 -18 91 -21 l87 -3 0
-45 c0 -45 0 -45 32 -42 30 3 32 5 32 47 l1 44 58 13 c73 17 108 36 141 74 54
65 43 124 -37 196 -70 63 -82 81 -67 99 7 8 49 27 94 41 65 21 107 27 211 31
190 8 179 23 -15 22 -111 0 -183 -5 -219 -15z"/>
<path d="M835 554 c-9 -14 -55 -75 -101 -135 -46 -60 -84 -111 -84 -114 0 -3
24 -5 54 -5 l54 0 -65 -125 c-35 -69 -62 -125 -59 -125 6 0 266 316 266 324 0
3 -22 6 -50 6 -27 0 -50 4 -50 8 0 5 13 48 30 97 16 49 28 90 26 92 -2 2 -11
-8 -21 -23z"/>
<path d="M1210 511 c0 -6 5 -13 10 -16 6 -3 10 -44 10 -89 l0 -83 50 -2 c40 0
52 3 65 21 20 30 19 71 -4 99 -17 22 -22 23 -50 12 l-31 -11 0 39 c0 35 -3 39
-25 39 -14 0 -25 -4 -25 -9z m108 -104 c2 -10 1 -30 -2 -43 -5 -19 -12 -25
-29 -22 -26 4 -36 50 -16 74 16 19 43 14 47 -9z"/>
<path d="M1385 511 c-3 -6 -1 -11 4 -11 7 0 11 -30 11 -80 0 -47 -4 -80 -10
-80 -5 0 -10 -4 -10 -10 0 -5 15 -10 33 -10 l33 0 -1 53 c0 45 2 52 20 52 16
0 21 -8 23 -42 2 -26 -1 -43 -7 -43 -6 0 -11 -4 -11 -10 0 -5 16 -10 35 -10
19 0 35 5 35 10 0 6 -4 10 -9 10 -6 0 -11 23 -13 51 -3 60 -24 82 -57 62 -18
-11 -20 -9 -23 25 -2 29 -8 38 -25 40 -11 2 -24 -2 -28 -7z"/>
<path d="M1577 513 c-14 -13 -6 -33 13 -33 13 0 20 7 20 20 0 19 -20 27 -33
13z"/>
<path d="M2040 511 c0 -6 5 -13 10 -16 6 -3 10 -40 10 -81 0 -43 -4 -74 -10
-74 -5 0 -10 -4 -10 -10 0 -5 16 -10 35 -10 19 0 35 5 35 10 0 6 -4 10 -10 10
-6 0 -10 37 -10 90 0 89 0 90 -25 90 -14 0 -25 -4 -25 -9z"/>
<path d="M2430 501 c0 -15 6 -21 21 -21 25 0 22 33 -4 38 -12 2 -17 -3 -17
-17z"/>
<path d="M1092 493 c-5 -10 -19 -45 -32 -78 -13 -33 -27 -64 -32 -69 -14 -17
-9 -26 17 -26 14 0 25 5 25 10 0 6 -4 10 -10 10 -5 0 -7 7 -4 15 4 10 20 15
44 15 24 0 40 -5 44 -15 3 -8 1 -15 -4 -15 -6 0 -10 -4 -10 -10 0 -5 16 -10
35 -10 33 0 43 8 29 23 -4 4 -21 41 -38 84 -32 80 -48 97 -64 66z m27 -73 c10
-29 9 -30 -19 -30 -28 0 -29 1 -19 30 6 17 15 30 19 30 4 0 13 -13 19 -30z"/>
<path d="M1750 490 c-11 -11 -20 -24 -20 -29 0 -15 40 -60 59 -66 26 -8 35
-35 18 -52 -14 -14 -47 -8 -47 8 0 5 -7 9 -15 9 -8 0 -15 -9 -15 -20 0 -17 7
-20 48 -20 55 0 72 12 72 52 0 21 -9 34 -40 54 -22 15 -40 33 -40 41 0 21 29
27 49 9 22 -20 34 -10 20 15 -13 25 -63 25 -89 -1z"/>
<path d="M2310 463 c-10 -12 -11 -18 -2 -21 7 -2 12 -23 12 -51 0 -26 5 -52
12 -59 15 -15 58 -16 58 -2 0 6 -7 10 -15 10 -11 0 -15 12 -15 50 0 40 3 50
17 50 14 0 14 3 -5 20 -25 24 -42 25 -62 3z"/>
<path d="M1555 450 c-3 -5 -1 -10 6 -10 8 0 10 -18 7 -60 l-4 -60 33 0 c18 0
33 5 33 10 0 6 -4 10 -10 10 -6 0 -10 27 -10 60 0 57 -1 60 -24 60 -14 0 -28
-4 -31 -10z"/>
<path d="M1902 444 c-16 -11 -22 -25 -22 -53 0 -46 24 -71 68 -71 66 0 94 69
47 115 -28 29 -61 32 -93 9z m72 -37 c12 -34 -2 -62 -30 -62 -14 0 -20 8 -22
33 -2 19 -1 41 2 49 9 23 40 11 50 -20z"/>
<path d="M2138 408 c2 -29 9 -61 14 -70 10 -21 48 -24 66 -6 9 9 12 9 12 0 0
-7 10 -12 23 -12 23 0 23 3 20 58 -3 31 -6 63 -8 70 -5 14 -55 17 -55 2 0 -5
5 -10 10 -10 6 0 10 -18 10 -40 0 -28 -5 -42 -19 -49 -26 -14 -31 -5 -31 56 0
49 -2 53 -24 53 -22 0 -23 -3 -18 -52z"/>
<path d="M2410 451 c0 -6 5 -13 10 -16 6 -3 10 -26 10 -51 0 -24 -4 -44 -10
-44 -5 0 -10 -4 -10 -10 0 -5 15 -10 33 -10 l34 0 -4 58 c-3 31 -6 63 -8 70
-5 14 -55 17 -55 3z"/>
<path d="M2525 435 c-48 -47 -22 -115 44 -115 47 0 71 24 71 73 0 64 -69 89
-115 42z m75 -25 c9 -31 -4 -70 -23 -70 -33 0 -47 43 -26 81 14 27 41 20 49
-11z"/>
<path d="M2665 450 c-3 -5 -1 -10 4 -10 6 0 11 -21 11 -50 0 -27 -4 -50 -10
-50 -5 0 -10 -4 -10 -10 0 -5 18 -10 40 -10 22 0 40 5 40 10 0 6 -5 10 -11 10
-6 0 -9 17 -7 43 2 35 7 43 26 45 20 3 22 -1 22 -42 0 -25 -4 -46 -10 -46 -5
0 -10 -4 -10 -10 0 -5 15 -10 34 -10 l34 0 -6 48 c-9 88 -26 107 -73 82 -13
-7 -19 -7 -19 0 0 13 -47 13 -55 0z"/>
<path d="M1262 268 c-16 -16 -16 -51 1 -46 8 3 20 58 12 58 -1 0 -6 -5 -13
-12z"/>
<path d="M1307 273 c-10 -10 -8 -53 2 -53 5 0 9 14 9 30 -1 33 -1 33 -11 23z"/>
<path d="M1690 270 c0 -5 5 -10 10 -10 6 0 10 -25 10 -55 0 -32 -4 -55 -11
-55 -5 0 -7 -4 -4 -10 3 -5 15 -10 25 -10 16 0 18 5 13 33 -3 23 0 37 11 46
13 11 17 11 22 -3 4 -9 4 -30 0 -46 -5 -27 -3 -30 18 -30 22 0 24 3 19 43 -7
53 -20 70 -50 62 -19 -4 -23 -2 -23 20 0 18 -5 25 -20 25 -11 0 -20 -4 -20
-10z"/>
<path d="M2075 205 c0 -72 1 -75 24 -75 17 0 22 4 17 16 -3 9 -6 42 -6 75 0
50 -3 59 -17 59 -16 0 -18 -10 -18 -75z"/>
<path d="M2494 264 c3 -9 6 -20 6 -25 0 -5 5 -9 10 -9 6 0 10 11 10 25 0 16
-6 25 -16 25 -11 0 -14 -5 -10 -16z"/>
<path d="M2542 255 c1 -14 5 -25 9 -25 10 0 20 30 13 41 -11 18 -24 9 -22 -16z"/>
<path d="M1340 257 c0 -10 8 -13 25 -9 24 4 25 2 25 -47 0 -33 -4 -51 -12 -51
-9 0 -9 -3 -1 -11 6 -6 19 -9 29 -7 15 3 17 12 15 61 -2 52 0 58 16 55 10 -1
20 2 23 7 3 6 -21 11 -57 13 -49 2 -63 0 -63 -11z"/>
<path d="M1498 229 c-22 -13 -24 -62 -2 -83 17 -18 59 -21 69 -7 3 5 -7 11
-22 13 -39 4 -42 28 -4 28 35 0 41 19 15 44 -18 18 -32 20 -56 5z m42 -19 c0
-5 -7 -10 -15 -10 -8 0 -15 5 -15 10 0 6 7 10 15 10 8 0 15 -4 15 -10z"/>
<path d="M1612 224 c-41 -28 -16 -94 36 -94 32 0 36 18 5 22 -24 3 -28 8 -28
33 0 27 3 30 28 28 29 -2 37 11 11 21 -22 9 -27 8 -52 -10z"/>
<path d="M1829 233 c0 -2 -1 -24 -1 -50 -1 -41 2 -48 20 -51 18 -3 20 1 15 36
-4 30 -1 40 11 45 19 7 32 -30 21 -62 -5 -17 -2 -21 14 -21 11 0 23 5 26 10 3
6 2 10 -4 10 -5 0 -11 19 -13 43 l-3 42 -42 0 c-24 0 -43 -1 -44 -2z"/>
<path d="M1972 224 c-47 -33 -9 -107 46 -88 49 17 38 104 -13 104 -6 0 -21 -7
-33 -16z m48 -40 c0 -28 -3 -35 -17 -32 -31 6 -29 68 2 68 11 0 15 -10 15 -36z"/>
<path d="M2158 229 c-12 -6 -18 -22 -18 -45 0 -27 5 -37 25 -46 38 -17 75 3
75 40 0 48 -43 74 -82 51z m47 -45 c0 -19 -6 -30 -17 -32 -14 -3 -18 3 -18 26
0 16 3 32 7 36 14 13 28 -1 28 -30z"/>
<path d="M2275 224 c-18 -18 -19 -26 -5 -40 7 -7 7 -21 -1 -43 -13 -37 -13
-37 22 -46 17 -4 33 0 49 13 27 22 20 42 -16 42 -29 0 -32 16 -4 23 12 3 20
14 20 26 0 12 5 21 10 21 6 0 10 3 10 8 0 14 -70 11 -85 -4z m43 -21 c-5 -25
-28 -28 -28 -4 0 12 6 21 16 21 9 0 14 -7 12 -17z m7 -83 c-3 -5 -12 -10 -20
-10 -8 0 -17 5 -20 10 -4 6 5 10 20 10 15 0 24 -4 20 -10z"/>
<path d="M2449 237 c0 -1 -2 -12 -3 -24 -2 -13 -6 -26 -10 -30 -10 -10 -27 19
-21 35 3 7 -5 12 -19 12 l-24 0 19 -40 c22 -45 24 -61 7 -78 -9 -9 -9 -12 3
-12 20 0 79 128 62 134 -7 3 -13 4 -14 3z"/>
</g>
</svg>
