<?xml version="1.0" standalone="no"?>
<!DOCTYPE svg PUBLIC "-//W3C//DTD SVG 20010904//EN"
 "http://www.w3.org/TR/2001/REC-SVG-20010904/DTD/svg10.dtd">
<svg version="1.0" xmlns="http://www.w3.org/2000/svg"
 width="512.000000pt" height="512.000000pt" viewBox="0 0 512.000000 512.000000"
 preserveAspectRatio="xMidYMid meet">

<g transform="translate(0.000000,512.000000) scale(0.100000,-0.100000)"
fill="#000000" stroke="none">
<path d="M2695 5108 c-741 -74 -1372 -615 -1565 -1340 -94 -358 -74 -764 55
-1098 35 -91 102 -230 141 -292 13 -21 24 -41 24 -46 0 -5 -35 -36 -77 -70
-43 -33 -154 -138 -248 -231 l-169 -170 -87 84 c-101 99 -127 106 -195 56 -65
-48 -552 -544 -563 -573 -6 -16 -8 -41 -5 -56 8 -41 1328 -1360 1364 -1363 66
-6 70 -2 338 264 145 144 277 280 293 301 50 67 43 95 -51 191 l-81 82 32 7
c17 3 374 6 793 6 l762 0 50 25 c101 51 262 187 573 484 96 91 207 203 247
249 126 144 438 625 535 824 44 92 48 135 19 182 -35 58 -184 145 -248 146
-18 0 -22 4 -18 18 70 222 92 504 61 749 -126 971 -1006 1669 -1980 1571z
m350 -208 c194 -23 377 -76 540 -157 98 -49 245 -142 245 -155 0 -4 -57 -8
-126 -8 l-125 0 -108 -105 -108 -105 -164 0 c-107 0 -182 -5 -215 -14 -149
-40 -260 -151 -300 -301 -18 -65 -19 -333 -2 -370 24 -53 36 -55 430 -55 l363
0 200 -201 c110 -110 212 -207 227 -215 22 -11 83 -14 303 -14 l275 0 -6 -57
c-16 -147 -69 -351 -94 -364 -8 -4 -46 -17 -83 -28 -87 -27 -166 -78 -237
-152 -51 -53 -82 -97 -169 -240 -26 -42 -43 -53 -205 -137 l-176 -92 -42 30
c-24 17 -70 40 -103 52 -56 21 -82 22 -400 28 l-340 5 -100 74 c-55 41 -125
86 -155 100 l-55 26 -330 3 c-256 2 -342 -1 -382 -11 -47 -12 -54 -12 -67 2
-27 32 -105 178 -140 263 -38 93 -92 286 -98 353 l-3 40 73 5 73 5 129 131
130 131 0 52 c0 53 1 54 77 132 l76 79 99 0 c112 0 148 13 167 58 9 21 12 91
9 238 -3 206 -3 210 -31 266 -59 120 -164 178 -320 178 l-91 0 69 71 c329 334
829 511 1290 459z m1154 -690 c144 -212 228 -426 266 -675 8 -55 15 -106 15
-112 0 -10 -55 -13 -243 -13 l-242 0 -200 201 c-110 111 -214 207 -232 215
-26 11 -101 14 -358 14 l-325 0 0 79 c0 67 4 87 28 132 22 43 38 59 81 81 53
28 54 28 248 28 122 0 202 4 216 11 12 6 67 56 122 110 l100 99 190 2 190 3
43 -45 c24 -25 69 -83 101 -130z m-2313 -84 l34 -34 0 -125 0 -125 -76 -4 -75
-3 -135 -136 -134 -135 0 -50 c0 -48 -2 -50 -82 -131 -66 -66 -88 -83 -112
-83 l-29 0 6 108 c12 230 84 473 200 680 l41 72 164 0 164 0 34 -34z m2724
-1567 c69 -18 69 -18 6 -131 -79 -140 -230 -376 -341 -533 -76 -106 -129 -166
-293 -327 -228 -222 -439 -411 -526 -469 l-58 -39 -780 0 -780 0 -65 -26 -66
-26 -351 351 -351 351 185 186 c195 196 307 283 414 323 53 20 76 21 357 21
343 0 307 8 458 -102 154 -112 107 -102 511 -108 l355 -5 47 -28 c119 -70 106
-217 -25 -273 -38 -17 -81 -19 -499 -22 l-458 -3 0 -100 0 -100 493 3 493 3
76 38 c136 67 197 160 207 316 l6 94 195 102 c212 111 197 98 285 252 59 103
154 205 219 233 82 37 191 44 286 19z m-3398 -1346 c307 -307 558 -562 558
-568 0 -6 -86 -96 -190 -200 l-190 -190 -567 568 -568 567 190 190 c104 104
194 190 200 190 5 0 261 -251 567 -557z"/>
<path d="M2980 3396 c-146 -41 -257 -153 -296 -300 -20 -75 -19 -354 2 -404
39 -95 115 -132 273 -132 l96 0 72 -72 c61 -61 73 -78 73 -105 l0 -33 105 0
105 0 0 72 0 72 -138 138 -138 138 -127 0 -127 0 0 134 c0 127 1 136 28 187
22 43 38 59 81 81 l53 28 217 0 216 0 183 -183 182 -182 0 -83 0 -82 106 0
106 0 -4 130 -3 130 -240 240 -241 240 -269 -1 c-183 -1 -285 -5 -315 -13z"/>
<path d="M1655 3181 c-16 -10 -76 -66 -133 -123 l-102 -103 75 -75 75 -75 95
95 95 95 80 -80 c44 -44 80 -84 80 -90 0 -5 -41 -50 -90 -100 l-90 -90 75 -75
75 -75 110 110 c60 60 114 121 121 136 6 17 10 64 8 113 l-4 86 -120 121 c-66
66 -132 127 -147 135 -41 22 -165 19 -203 -5z"/>
<path d="M640 1385 l-75 -75 105 -105 105 -105 75 75 75 75 -105 105 -105 105
-75 -75z"/>
</g>
</svg>
