<?xml version="1.0" standalone="no"?>
<!DOCTYPE svg PUBLIC "-//W3C//DTD SVG 20010904//EN"
 "http://www.w3.org/TR/2001/REC-SVG-20010904/DTD/svg10.dtd">
<svg version="1.0" xmlns="http://www.w3.org/2000/svg"
 width="736.000000pt" height="736.000000pt" viewBox="0 0 736.000000 736.000000"
 preserveAspectRatio="xMidYMid meet">

<g transform="translate(0.000000,736.000000) scale(0.100000,-0.100000)"
fill="#000000" stroke="none">
<path d="M4265 5130 c-40 -16 -52 -43 -54 -127 l-1 -23 -224 0 c-251 0 -240
-4 -234 74 3 47 -24 76 -71 76 -57 -1 -74 -21 -79 -90 l-4 -60 -229 0 -229 0
0 55 c0 67 -22 95 -75 95 -47 0 -69 -27 -75 -93 l-5 -52 -207 -3 -207 -2 -20
-27 c-21 -26 -21 -29 -21 -1348 l0 -1322 21 -27 20 -26 1109 0 1109 0 20 26
21 27 -2 1329 -3 1330 -24 19 c-21 17 -41 19 -227 19 l-204 0 0 49 c0 74 -52
123 -105 101z m-1275 -349 c0 -64 28 -101 75 -101 51 0 75 31 75 97 l0 53 230
0 230 0 0 -50 c0 -41 5 -56 25 -75 25 -26 63 -32 94 -15 19 10 41 55 39 80 -1
8 0 25 0 38 l2 22 225 0 225 0 1 -22 c1 -13 2 -27 4 -33 1 -5 3 -20 3 -32 4
-60 83 -83 127 -38 20 19 25 34 25 75 l0 50 150 0 150 0 0 -1225 0 -1225 -995
0 -995 0 0 1225 0 1225 155 0 155 0 0 -49z"/>
<path d="M3015 4345 c-30 -30 -32 -64 -4 -99 l20 -26 644 0 c613 0 644 1 666
19 32 26 32 86 0 112 -22 18 -53 19 -663 19 l-639 0 -24 -25z"/>
<path d="M3011 3884 c-28 -35 -27 -75 2 -102 l23 -22 641 0 c596 0 642 1 662
18 32 26 37 72 11 105 l-21 27 -649 0 -649 0 -20 -26z"/>
<path d="M3015 3425 c-14 -13 -25 -36 -25 -50 0 -14 11 -37 25 -50 l24 -25
639 0 c595 0 641 1 661 18 11 9 24 31 27 49 5 26 1 37 -19 57 l-26 26 -641 0
-641 0 -24 -25z"/>
<path d="M3015 2965 c-14 -13 -25 -36 -25 -50 0 -14 11 -37 25 -50 l24 -25
639 0 c595 0 641 1 661 18 11 9 24 31 27 49 5 26 1 37 -19 57 l-26 26 -641 0
-641 0 -24 -25z"/>
</g>
</svg>
